<svg width="24" height="44" viewBox="0 0 24 44" fill="none" xmlns="http://www.w3.org/2000/svg">
<rect x="1" y="1" width="22" height="37" rx="1" stroke="black" stroke-width="2"/>
<rect x="2" y="2" width="20" height="2" fill="black"/>
<circle cx="12" cy="20" r="7.25" stroke="black" stroke-width="1.5"/>
<path d="M8.315 17.625V16.897H9.771V22H8.966V17.625H8.315ZM12.3723 22.063C12.0689 22.063 11.7959 22.0093 11.5533 21.902C11.3153 21.79 11.1263 21.6407 10.9863 21.454C10.8463 21.2627 10.7716 21.0503 10.7623 20.817H11.5883C11.6023 20.9803 11.6793 21.118 11.8193 21.23C11.9639 21.3373 12.1436 21.391 12.3583 21.391C12.5823 21.391 12.7549 21.349 12.8763 21.265C13.0023 21.1763 13.0653 21.0643 13.0653 20.929C13.0653 20.7843 12.9953 20.677 12.8553 20.607C12.7199 20.537 12.5029 20.46 12.2043 20.376C11.9149 20.2967 11.6793 20.2197 11.4973 20.145C11.3153 20.0703 11.1566 19.956 11.0213 19.802C10.8906 19.648 10.8253 19.445 10.8253 19.193C10.8253 18.9877 10.8859 18.801 11.0073 18.633C11.1286 18.4603 11.3013 18.325 11.5253 18.227C11.7539 18.129 12.0153 18.08 12.3093 18.08C12.7479 18.08 13.1003 18.192 13.3663 18.416C13.6369 18.6353 13.7816 18.9363 13.8003 19.319H13.0023C12.9883 19.1463 12.9183 19.0087 12.7923 18.906C12.6663 18.8033 12.4959 18.752 12.2813 18.752C12.0713 18.752 11.9103 18.7917 11.7983 18.871C11.6863 18.9503 11.6303 19.0553 11.6303 19.186C11.6303 19.2887 11.6676 19.375 11.7423 19.445C11.8169 19.515 11.9079 19.571 12.0153 19.613C12.1226 19.6503 12.2813 19.6993 12.4913 19.76C12.7713 19.8347 12.9999 19.9117 13.1773 19.991C13.3593 20.0657 13.5156 20.1777 13.6463 20.327C13.7769 20.4763 13.8446 20.6747 13.8493 20.922C13.8493 21.1413 13.7886 21.3373 13.6673 21.51C13.5459 21.6827 13.3733 21.818 13.1493 21.916C12.9299 22.014 12.6709 22.063 12.3723 22.063ZM15.6425 18.794V20.929C15.6425 21.0737 15.6752 21.1787 15.7405 21.244C15.8105 21.3047 15.9272 21.335 16.0905 21.335H16.5805V22H15.9505C15.5912 22 15.3159 21.916 15.1245 21.748C14.9332 21.58 14.8375 21.307 14.8375 20.929V18.794H14.3825V18.143H14.8375V17.184H15.6425V18.143H16.5805V18.794H15.6425Z" fill="black"/>
<rect x="10" y="31" width="5" height="13" rx="1" fill="black"/>
<rect x="11" y="29" width="3" height="2" fill="black"/>
<line x1="9.5" y1="36" x2="9.5" y2="40" stroke="white"/>
<line x1="15.5" y1="36" x2="15.5" y2="40" stroke="white"/>
</svg>
