<?xml version="1.0" encoding="utf-8"?>
<!-- Generator: Adobe Illustrator 24.0.1, SVG Export Plug-In . SVG Version: 6.00 Build 0)  -->
<svg version="1.1" id="Layer_1" xmlns="http://www.w3.org/2000/svg" xmlns:xlink="http://www.w3.org/1999/xlink" x="0px" y="0px"
	 viewBox="0 0 176 194" style="enable-background:new 0 0 176 194;" xml:space="preserve">
<style type="text/css">
	.st0{fill:#3A001E;stroke:#FFFFFF;stroke-width:2;stroke-miterlimit:10;}
	.st1{fill:#E9967A;stroke:#FFFFFF;stroke-width:2;stroke-miterlimit:10;}
</style>
<g>
	<path class="st0" d="M145.21,23.95c-8.28,0-15,6.72-15,15v94.98c0,12.15-9.85,22-22,22H77.2c-2.2,0-5.07,1.62-5.38,3.8l0,0h-0.15
		v-10.98h0.05v-3.98c0-6.78,5.54-12.32,12.32-12.32h12.68c12.1,0,21-9.9,21-22V90.47h-0.15c-0.82,5.85-8.28,10.49-18.87,10.94v0.04
		H60.71c-12.15,0-22,9.85-22,22v47.48h-0.04c-0.45,10.59-4.35,23.18-10.2,24l0,0l18.22-3.02h0.96l82.56-0.98v0.02h0
		c19.33,0,35-15.67,35-35V43.97h0.04c0.45-10.59,5.09-19.05,10.94-19.87v-0.15H145.21z"/>
</g>
<g>
	<path class="st1" d="M117.21,0.43c-8.28,0-15,6.72-15,15v94.98c0,12.15-9.85,22-22,22H49.19c-2.2,0-5.07,1.62-5.38,3.8l0,0h-0.15
		v-10.98h0.05v-3.98c0-6.78,5.54-12.32,12.32-12.32h12.68c12.1,0,21-9.9,21-22V66.95h-0.15c-0.82,5.85-8.28,10.49-18.87,10.94v0.04
		H32.71c-12.15,0-22,9.85-22,22v47.48h-0.04c-0.45,10.59-4.35,23.18-10.2,24l0,0l18.22-3.02h0.96l82.56-0.98v0.02h0
		c19.33,0,35-15.67,35-35V20.45h0.04c0.45-10.59,5.09-19.05,10.94-19.87V0.43H117.21z"/>
</g>
</svg>
